<svg xmlns="http://www.w3.org/2000/svg" viewBox="0 0 32 32"><title>file_type_ngrx_state</title><path d="M15.547,12.489c.151.062.279.106.425.163v7.784a8.63,8.63,0,0,1-2.1-1.838c-.131.627.259,1.384,1.177,2.285a4.42,4.42,0,0,1-2.825-4.25Q12.171,13.446,15.547,12.489ZM4.82,23.9l11.152,6.074V23.423a8.623,8.623,0,0,1-4.4-1.908,8.032,8.032,0,0,1-2.8-3.987c-.811-.886-.819-.981-.9-1.335s.053-.453.291-.8a1.306,1.306,0,0,0,.114-.991,2.5,2.5,0,0,1-.349-1.316,1.29,1.29,0,0,1,.578-.914,2.961,2.961,0,0,0,.707-.737,3.487,3.487,0,0,0,.076-1.2q-.006-1.045,1.161-1.138a3.315,3.315,0,0,0,2.193-1.369,1.387,1.387,0,0,1,1.062-.4,2.235,2.235,0,0,1,1.731.724c.179-.009.36.008.541.016V2.019L2.947,6.541Z" style="fill:#43a047"/><path d="M29.053,6.541,27.18,23.9,16.028,29.969,16,29.985,15.972,30V23.423c.018,0,.038,0,.056.005A8.032,8.032,0,0,0,17,23.5a7.44,7.44,0,0,0,7.036-4.86,6.441,6.441,0,0,1-2.885,1.435,5.367,5.367,0,0,0,3-5.629,7.514,7.514,0,0,1-1.647,2.387,5.276,5.276,0,0,0,.927-2.889,3.524,3.524,0,0,0-.92-2.368l0,.007q1.111,3.987-2.691,6.976a3.255,3.255,0,0,0,2.665-.767,6.731,6.731,0,0,1-4.665,2.3,3.073,3.073,0,0,0,2.565,1.042,5.7,5.7,0,0,1-4.366-.66c-.019-.011-.037-.025-.056-.037V12.652l.056.022C20,14.239,22.11,14.233,22.3,12.621q-.253-1.912-3.029-3.564a7.3,7.3,0,0,0-3.243-.989h-.056V2L16,2.01l.028.009Z" style="fill:#4caf50"/></svg>