<svg xmlns="http://www.w3.org/2000/svg" viewBox="0 0 32 32"><title>file_type_ngrx</title><path d="M16.028,2,2.947,6.541,4.82,23.9,16.028,30Z" style="fill:#412846;fill-rule:evenodd"/><path d="M15.972,2,29.053,6.541,27.18,23.9,15.972,30Z" style="fill:#4b314f;fill-rule:evenodd"/><path d="M22.52,11.581l0-.007a3.524,3.524,0,0,1,.92,2.368,5.276,5.276,0,0,1-.927,2.889,7.514,7.514,0,0,0,1.647-2.387,5.367,5.367,0,0,1-3,5.629,6.441,6.441,0,0,0,2.885-1.435A7.44,7.44,0,0,1,17,23.5a8.573,8.573,0,0,1-5.436-1.983,8.032,8.032,0,0,1-2.8-3.987c-.811-.886-.819-.981-.9-1.335s.053-.453.291-.8a1.306,1.306,0,0,0,.114-.991,2.5,2.5,0,0,1-.349-1.316,1.29,1.29,0,0,1,.578-.914,2.961,2.961,0,0,0,.707-.737,3.491,3.491,0,0,0,.076-1.2q-.006-1.045,1.161-1.138a3.315,3.315,0,0,0,2.193-1.369,1.387,1.387,0,0,1,1.062-.4,2.235,2.235,0,0,1,1.731.724,7.048,7.048,0,0,1,3.84,1.006q2.775,1.649,3.029,3.564-.3,2.519-6.753-.132-3.375.957-3.32,4.144a4.42,4.42,0,0,0,2.825,4.25c-.918-.9-1.308-1.658-1.177-2.285q2.864,3.392,6.519,2.535a3.073,3.073,0,0,1-2.565-1.042,6.731,6.731,0,0,0,4.665-2.3,3.255,3.255,0,0,1-2.665.767Q23.632,15.568,22.52,11.581Z" style="fill:#ba2bd2;fill-rule:evenodd"/></svg>